<?xml version="1.0" standalone="yes"?>

<svg version="1.1" viewBox="0.0 0.0 413.0 227.0" fill="none" stroke="none" stroke-linecap="square" stroke-miterlimit="10" xmlns="http://www.w3.org/2000/svg" xmlns:xlink="http://www.w3.org/1999/xlink"><clipPath id="p.0"><path d="m0 0l413.0 0l0 227.0l-413.0 0l0 -227.0z" clip-rule="nonzero"></path></clipPath><g clip-path="url(#p.0)"><path fill="#000000" fill-opacity="0.0" d="m0 0l413.1942 0l0 227.67192l-413.1942 0z" fill-rule="nonzero"></path><path fill="#ffffff" d="m10.994751 11.131233l276.0 0l0 55.37008l-276.0 0z" fill-rule="nonzero"></path><path stroke="#0b5394" stroke-width="1.0" stroke-linejoin="round" stroke-linecap="butt" d="m10.994751 11.131233l276.0 0l0 55.37008l-276.0 0z" fill-rule="nonzero"></path><path fill="#0b5394" d="m86.06095 39.01752q0 -2.078125 0.625 -3.484375q0.453125 -1.046875 1.25 -1.859375q0.8125 -0.828125 1.765625 -1.234375q1.28125 -0.53125 2.9375 -0.53125q3.0 0 4.796875 1.859375q1.8125 1.859375 1.8125 5.1875q0 3.296875 -1.796875 5.15625q-1.78125 1.859375 -4.78125 1.859375q-3.03125 0 -4.828125 -1.84375q-1.78125 -1.859375 -1.78125 -5.109375zm2.828125 -0.09375q0 2.3125 1.0625 3.515625q1.078125 1.1875 2.71875 1.1875q1.640625 0 2.6875 -1.1875q1.046875 -1.1875 1.046875 -3.546875q0 -2.34375 -1.03125 -3.484375q-1.015625 -1.15625 -2.703125 -1.15625q-1.703125 0 -2.75 1.171875q-1.03125 1.15625 -1.03125 3.5zm12.027054 -3.046875l2.40625 0l0 1.359375q1.28125 -1.578125 3.0625 -1.578125q0.953125 0 1.640625 0.390625q0.703125 0.390625 1.140625 1.1875q0.65625 -0.796875 1.40625 -1.1875q0.75 -0.390625 1.609375 -0.390625q1.078125 0 1.828125 0.453125q0.75 0.4375 1.125 1.28125q0.265625 0.640625 0.265625 2.046875l0 6.296875l-2.609375 0l0 -5.625q0 -1.46875 -0.265625 -1.90625q-0.359375 -0.546875 -1.109375 -0.546875q-0.546875 0 -1.03125 0.34375q-0.484375 0.328125 -0.703125 0.96875q-0.203125 0.640625 -0.203125 2.03125l0 4.734375l-2.609375 0l0 -5.40625q0 -1.4375 -0.140625 -1.84375q-0.140625 -0.421875 -0.4375 -0.625q-0.28125 -0.203125 -0.78125 -0.203125q-0.609375 0 -1.09375 0.328125q-0.484375 0.3125 -0.6875 0.9375q-0.203125 0.609375 -0.203125 2.03125l0 4.78125l-2.609375 0l0 -9.859375zm22.47902 6.71875l2.609375 0.4375q-0.5 1.4375 -1.59375 2.1875q-1.078125 0.734375 -2.703125 0.734375q-2.5625 0 -3.796875 -1.671875q-0.96875 -1.34375 -0.96875 -3.40625q0 -2.4375 1.265625 -3.828125q1.28125 -1.390625 3.25 -1.390625q2.1875 0 3.453125 1.453125q1.28125 1.453125 1.234375 4.453125l-6.53125 0q0.015625 1.15625 0.625 1.8125q0.609375 0.640625 1.5 0.640625q0.609375 0 1.03125 -0.328125q0.421875 -0.34375 0.625 -1.09375zm0.15625 -2.625q-0.03125 -1.140625 -0.59375 -1.71875q-0.546875 -0.59375 -1.34375 -0.59375q-0.859375 0 -1.40625 0.625q-0.5625 0.609375 -0.546875 1.6875l3.890625 0zm3.2663422 5.765625l3.5624924 -5.078125l-3.4062424 -4.78125l3.1718674 0l1.75 2.71875l1.828125 -2.71875l3.0625 0l-3.328125 4.671875l3.640625 5.1875l-3.203125 0l-2.0 -3.046875l-2.03125 3.046875l-3.0468674 0zm11.610085 0l0 -13.59375l4.109375 0l2.46875 9.265625l2.4375 -9.265625l4.125 0l0 13.59375l-2.546875 0l0 -10.703125l-2.703125 10.703125l-2.640625 0l-2.703125 -10.703125l0 10.703125l-2.546875 0zm17.509552 -6.84375l-2.359375 -0.4375q0.390625 -1.421875 1.359375 -2.109375q0.984375 -0.6875 2.90625 -0.6875q1.734375 0 2.59375 0.421875q0.859375 0.40625 1.203125 1.046875q0.34375 0.625 0.34375 2.328125l-0.03125 3.046875q0 1.296875 0.125 1.921875q0.125 0.609375 0.46875 1.3125l-2.578125 0q-0.09375 -0.265625 -0.25 -0.765625q-0.0625 -0.234375 -0.09375 -0.3125q-0.65625 0.65625 -1.421875 0.984375q-0.765625 0.3125 -1.625 0.3125q-1.515625 0 -2.40625 -0.8125q-0.875 -0.828125 -0.875 -2.09375q0 -0.84375 0.390625 -1.484375q0.40625 -0.65625 1.125 -1.0q0.71875 -0.359375 2.078125 -0.625q1.828125 -0.328125 2.53125 -0.625l0 -0.265625q0 -0.75 -0.375 -1.0625q-0.359375 -0.328125 -1.390625 -0.328125q-0.703125 0 -1.09375 0.28125q-0.390625 0.265625 -0.625 0.953125zm3.484375 2.109375q-0.5 0.171875 -1.59375 0.40625q-1.078125 0.234375 -1.40625 0.453125q-0.515625 0.359375 -0.515625 0.921875q0 0.546875 0.40625 0.953125q0.40625 0.390625 1.046875 0.390625q0.703125 0 1.34375 -0.46875q0.46875 -0.359375 0.625 -0.859375q0.09375 -0.34375 0.09375 -1.28125l0 -0.515625zm13.906982 4.734375l-2.609375 0l0 -5.03125q0 -1.59375 -0.171875 -2.0625q-0.15625 -0.46875 -0.53125 -0.71875q-0.375 -0.265625 -0.90625 -0.265625q-0.6875 0 -1.234375 0.375q-0.53125 0.359375 -0.734375 0.984375q-0.1875 0.609375 -0.1875 2.25l0 4.46875l-2.609375 0l0 -9.859375l2.421875 0l0 1.453125q1.296875 -1.671875 3.25 -1.671875q0.859375 0 1.578125 0.3125q0.71875 0.3125 1.078125 0.796875q0.359375 0.484375 0.5 1.09375q0.15625 0.609375 0.15625 1.75l0 6.125zm2.4272156 -11.1875l0 -2.40625l2.609375 0l0 2.40625l-2.609375 0zm0 11.1875l0 -9.859375l2.609375 0l0 9.859375l-2.609375 0zm4.042694 -9.859375l1.453125 0l0 -0.734375q0 -1.25 0.265625 -1.859375q0.265625 -0.609375 0.96875 -0.984375q0.71875 -0.390625 1.796875 -0.390625q1.109375 0 2.1875 0.328125l-0.359375 1.8125q-0.625 -0.140625 -1.203125 -0.140625q-0.5625 0 -0.8125 0.265625q-0.234375 0.265625 -0.234375 1.015625l0 0.6875l1.9375 0l0 2.0625l-1.9375 0l0 7.796875l-2.609375 0l0 -7.796875l-1.453125 0l0 -2.0625zm13.056427 6.71875l2.609375 0.4375q-0.5 1.4375 -1.59375 2.1875q-1.078125 0.734375 -2.703125 0.734375q-2.5625 0 -3.796875 -1.671875q-0.96875 -1.34375 -0.96875 -3.40625q0 -2.4375 1.265625 -3.828125q1.28125 -1.390625 3.25 -1.390625q2.1875 0 3.453125 1.453125q1.28125 1.453125 1.234375 4.453125l-6.53125 0q0.015625 1.15625 0.625 1.8125q0.609375 0.640625 1.5 0.640625q0.609375 0 1.03125 -0.328125q0.421875 -0.34375 0.625 -1.09375zm0.15625 -2.625q-0.03125 -1.140625 -0.59375 -1.71875q-0.546875 -0.59375 -1.34375 -0.59375q-0.859375 0 -1.40625 0.625q-0.5625 0.609375 -0.546875 1.6875l3.890625 0zm3.610077 2.953125l2.609375 -0.390625q0.171875 0.75 0.671875 1.15625q0.515625 0.390625 1.4375 0.390625q1.0 0 1.515625 -0.375q0.34375 -0.265625 0.34375 -0.703125q0 -0.296875 -0.1875 -0.484375q-0.1875 -0.1875 -0.875 -0.34375q-3.140625 -0.703125 -4.0 -1.265625q-1.15625 -0.796875 -1.15625 -2.21875q0 -1.28125 1.0 -2.15625q1.015625 -0.875 3.140625 -0.875q2.03125 0 3.0 0.65625q0.984375 0.65625 1.359375 1.953125l-2.453125 0.453125q-0.15625 -0.578125 -0.609375 -0.875q-0.4375 -0.3125 -1.25 -0.3125q-1.03125 0 -1.46875 0.296875q-0.296875 0.203125 -0.296875 0.515625q0 0.28125 0.25 0.484375q0.359375 0.25 2.4375 0.734375q2.078125 0.46875 2.90625 1.15625q0.828125 0.6875 0.828125 1.9375q0 1.359375 -1.140625 2.328125q-1.125 0.96875 -3.34375 0.96875q-2.015625 0 -3.1875 -0.8125q-1.171875 -0.8125 -1.53125 -2.21875zm15.797607 -7.046875l0 2.078125l-1.78125 0l0 3.984375q0 1.203125 0.046875 1.40625q0.0625 0.1875 0.234375 0.328125q0.1875 0.125 0.453125 0.125q0.359375 0 1.046875 -0.25l0.21875 2.015625q-0.90625 0.390625 -2.0625 0.390625q-0.703125 0 -1.265625 -0.234375q-0.5625 -0.234375 -0.828125 -0.609375q-0.265625 -0.375 -0.375 -1.015625q-0.078125 -0.453125 -0.078125 -1.84375l0 -4.296875l-1.203125 0l0 -2.078125l1.203125 0l0 -1.953125l2.609375 -1.515625l0 3.46875l1.78125 0z" fill-rule="nonzero"></path><path fill="#ffffff" d="m90.99475 133.20473l291.90552 0l0 79.93701l-291.90552 0z" fill-rule="nonzero"></path><path stroke="#0b5394" stroke-width="1.0" stroke-linejoin="round" stroke-linecap="butt" d="m90.99475 133.20473l291.90552 0l0 79.93701l-291.90552 0z" fill-rule="nonzero"></path><path fill="#000000" fill-opacity="0.0" d="m33.230972 108.795746l0 -31.02362" fill-rule="nonzero"></path><path stroke="#0b5394" stroke-width="1.0" stroke-miterlimit="8.0" d="m33.230972 108.795746l0 -31.02362" fill-rule="nonzero"></path><path fill="#0b5394" d="m28.459318 72.71701l4.771654 -5.0551224l4.771652 5.0551224l-4.771652 5.0551147z" fill-rule="nonzero"></path><path stroke="#0b5394" stroke-width="2.0" stroke-linejoin="round" stroke-linecap="butt" d="m28.459318 72.71701l4.771654 -5.0551224l4.771652 5.0551224l-4.771652 5.0551147z" fill-rule="nonzero"></path><path fill="#0b5394" d="m100.81183 155.02489l0 -10.734375l1.328125 0l0 10.734375l-1.328125 0zm2.8030243 -3.890625q0 -2.15625 1.203125 -3.203125q1.0 -0.859375 2.4375 -0.859375q1.609375 0 2.625 1.046875q1.015625 1.046875 1.015625 2.90625q0 1.5 -0.453125 2.359375q-0.4375 0.859375 -1.3125 1.34375q-0.859375 0.46875 -1.875 0.46875q-1.625 0 -2.640625 -1.046875q-1.0 -1.046875 -1.0 -3.015625zm1.359375 0q0 1.5 0.640625 2.25q0.65625 0.734375 1.640625 0.734375q0.984375 0 1.640625 -0.75q0.65625 -0.75 0.65625 -2.28125q0 -1.4375 -0.65625 -2.171875q-0.65625 -0.75 -1.640625 -0.75q-0.984375 0 -1.640625 0.734375q-0.640625 0.734375 -0.640625 2.234375zm12.354233 1.046875l1.296875 0.15625q-0.203125 1.34375 -1.09375 2.109375q-0.875 0.75 -2.140625 0.75q-1.59375 0 -2.5625 -1.03125q-0.96875 -1.046875 -0.96875 -3.0q0 -1.265625 0.40625 -2.203125q0.421875 -0.953125 1.265625 -1.421875q0.859375 -0.46875 1.859375 -0.46875q1.265625 0 2.078125 0.640625q0.8125 0.640625 1.03125 1.8125l-1.28125 0.203125q-0.1875 -0.78125 -0.65625 -1.171875q-0.453125 -0.40625 -1.109375 -0.40625q-1.0 0 -1.625 0.71875q-0.625 0.71875 -0.625 2.265625q0 1.5625 0.59375 2.28125q0.609375 0.703125 1.578125 0.703125q0.78125 0 1.296875 -0.46875q0.515625 -0.484375 0.65625 -1.46875zm7.328125 1.890625q-0.734375 0.609375 -1.40625 0.875q-0.671875 0.25 -1.453125 0.25q-1.28125 0 -1.96875 -0.625q-0.6875 -0.625 -0.6875 -1.59375q0 -0.578125 0.25 -1.046875q0.265625 -0.46875 0.6875 -0.75q0.421875 -0.296875 0.953125 -0.4375q0.375 -0.109375 1.171875 -0.203125q1.59375 -0.1875 2.34375 -0.453125q0.015625 -0.265625 0.015625 -0.34375q0 -0.8125 -0.375 -1.140625q-0.515625 -0.4375 -1.5 -0.4375q-0.9375 0 -1.390625 0.328125q-0.4375 0.3125 -0.640625 1.140625l-1.296875 -0.171875q0.171875 -0.828125 0.578125 -1.328125q0.40625 -0.515625 1.171875 -0.78125q0.765625 -0.28125 1.765625 -0.28125q1.0 0 1.609375 0.234375q0.625 0.234375 0.921875 0.59375q0.296875 0.34375 0.40625 0.890625q0.0625 0.34375 0.0625 1.21875l0 1.75q0 1.84375 0.078125 2.328125q0.09375 0.484375 0.34375 0.9375l-1.375 0q-0.203125 -0.40625 -0.265625 -0.953125zm-0.109375 -2.953125q-0.71875 0.296875 -2.15625 0.5q-0.8125 0.125 -1.15625 0.265625q-0.328125 0.140625 -0.515625 0.421875q-0.171875 0.28125 -0.171875 0.625q0 0.53125 0.390625 0.890625q0.40625 0.34375 1.171875 0.34375q0.765625 0 1.359375 -0.328125q0.59375 -0.34375 0.875 -0.921875q0.203125 -0.4375 0.203125 -1.3125l0 -0.484375zm6.072983 2.734375l0.1875 1.15625q-0.5625 0.125 -1.0 0.125q-0.71875 0 -1.125 -0.234375q-0.390625 -0.234375 -0.546875 -0.59375q-0.15625 -0.375 -0.15625 -1.5625l0 -4.46875l-0.96875 0l0 -1.03125l0.96875 0l0 -1.921875l1.3125 -0.796875l0 2.71875l1.328125 0l0 1.03125l-1.328125 0l0 4.546875q0 0.5625 0.0625 0.734375q0.078125 0.15625 0.234375 0.25q0.15625 0.09375 0.4375 0.09375q0.234375 0 0.59375 -0.046875zm1.1969757 -8.046875l0 -1.515625l1.3125 0l0 1.515625l-1.3125 0zm0 9.21875l0 -7.78125l1.3125 0l0 7.78125l-1.3125 0zm2.7561493 -3.890625q0 -2.15625 1.203125 -3.203125q1.0 -0.859375 2.4375 -0.859375q1.609375 0 2.625 1.046875q1.015625 1.046875 1.015625 2.90625q0 1.5 -0.453125 2.359375q-0.4375 0.859375 -1.3125 1.34375q-0.859375 0.46875 -1.875 0.46875q-1.625 0 -2.640625 -1.046875q-1.0 -1.046875 -1.0 -3.015625zm1.359375 0q0 1.5 0.640625 2.25q0.65625 0.734375 1.640625 0.734375q0.984375 0 1.640625 -0.75q0.65625 -0.75 0.65625 -2.28125q0 -1.4375 -0.65625 -2.171875q-0.65625 -0.75 -1.640625 -0.75q-0.984375 0 -1.640625 0.734375q-0.640625 0.734375 -0.640625 2.234375zm7.276108 3.890625l0 -7.78125l1.1875 0l0 1.109375q0.859375 -1.28125 2.484375 -1.28125q0.703125 0 1.28125 0.25q0.59375 0.25 0.890625 0.671875q0.296875 0.40625 0.40625 0.96875q0.078125 0.359375 0.078125 1.28125l0 4.78125l-1.328125 0l0 -4.734375q0 -0.796875 -0.15625 -1.1875q-0.140625 -0.40625 -0.53125 -0.640625q-0.390625 -0.25 -0.921875 -0.25q-0.84375 0 -1.453125 0.53125q-0.609375 0.53125 -0.609375 2.03125l0 4.25l-1.328125 0zm8.526108 -6.28125l0 -1.5l1.5 0l0 1.5l-1.5 0zm0 6.28125l0 -1.5l1.5 0l0 1.5l-1.5 0z" fill-rule="nonzero"></path><path fill="#0b5394" d="m110.136826 173.02489l0 -6.75l-1.15625 0l0 -1.03125l1.15625 0l0 -0.828125q0 -0.78125 0.140625 -1.15625q0.203125 -0.515625 0.671875 -0.828125q0.484375 -0.328125 1.34375 -0.328125q0.5625 0 1.234375 0.140625l-0.203125 1.140625q-0.40625 -0.078125 -0.765625 -0.078125q-0.609375 0 -0.859375 0.265625q-0.25 0.25 -0.25 0.953125l0 0.71875l1.515625 0l0 1.03125l-1.515625 0l0 6.75l-1.3125 0zm3.2751007 -3.890625q0 -2.15625 1.203125 -3.203125q1.0 -0.859375 2.4375 -0.859375q1.609375 0 2.625 1.046875q1.015625 1.046875 1.015625 2.90625q0 1.5 -0.453125 2.359375q-0.4375 0.859375 -1.3125 1.34375q-0.859375 0.46875 -1.875 0.46875q-1.625 0 -2.640625 -1.046875q-1.0 -1.046875 -1.0 -3.015625zm1.359375 0q0 1.5 0.640625 2.25q0.65625 0.734375 1.640625 0.734375q0.984375 0 1.640625 -0.75q0.65625 -0.75 0.65625 -2.28125q0 -1.4375 -0.65625 -2.171875q-0.65625 -0.75 -1.640625 -0.75q-0.984375 0 -1.640625 0.734375q-0.640625 0.734375 -0.640625 2.234375zm7.260483 3.890625l0 -7.78125l1.1875 0l0 1.1875q0.453125 -0.828125 0.84375 -1.09375q0.390625 -0.265625 0.84375 -0.265625q0.671875 0 1.359375 0.421875l-0.453125 1.21875q-0.484375 -0.28125 -0.96875 -0.28125q-0.4375 0 -0.78125 0.265625q-0.34375 0.25 -0.484375 0.71875q-0.21875 0.703125 -0.21875 1.53125l0 4.078125l-1.328125 0zm4.8962708 0l0 -7.78125l1.1875 0l0 1.09375q0.359375 -0.578125 0.96875 -0.921875q0.609375 -0.34375 1.390625 -0.34375q0.859375 0 1.40625 0.359375q0.5625 0.359375 0.78125 1.0q0.921875 -1.359375 2.40625 -1.359375q1.15625 0 1.78125 0.640625q0.625 0.640625 0.625 1.96875l0 5.34375l-1.3125 0l0 -4.90625q0 -0.78125 -0.125 -1.125q-0.125 -0.359375 -0.46875 -0.5625q-0.34375 -0.21875 -0.796875 -0.21875q-0.8125 0 -1.359375 0.546875q-0.546875 0.546875 -0.546875 1.75l0 4.515625l-1.3125 0l0 -5.046875q0 -0.890625 -0.328125 -1.328125q-0.3125 -0.4375 -1.046875 -0.4375q-0.5625 0 -1.03125 0.296875q-0.46875 0.296875 -0.6875 0.859375q-0.203125 0.5625 -0.203125 1.625l0 4.03125l-1.328125 0zm17.286896 -0.953125q-0.734375 0.609375 -1.40625 0.875q-0.671875 0.25 -1.453125 0.25q-1.28125 0 -1.96875 -0.625q-0.6875 -0.625 -0.6875 -1.59375q0 -0.578125 0.25 -1.046875q0.265625 -0.46875 0.6875 -0.75q0.421875 -0.296875 0.953125 -0.4375q0.375 -0.109375 1.171875 -0.203125q1.59375 -0.1875 2.34375 -0.453125q0.015625 -0.265625 0.015625 -0.34375q0 -0.8125 -0.375 -1.140625q-0.515625 -0.4375 -1.5 -0.4375q-0.9375 0 -1.390625 0.328125q-0.4375 0.3125 -0.640625 1.140625l-1.296875 -0.171875q0.171875 -0.828125 0.578125 -1.328125q0.40625 -0.515625 1.171875 -0.78125q0.765625 -0.28125 1.765625 -0.28125q1.0 0 1.609375 0.234375q0.625 0.234375 0.921875 0.59375q0.296875 0.34375 0.40625 0.890625q0.0625 0.34375 0.0625 1.21875l0 1.75q0 1.84375 0.078125 2.328125q0.09375 0.484375 0.34375 0.9375l-1.375 0q-0.203125 -0.40625 -0.265625 -0.953125zm-0.109375 -2.953125q-0.71875 0.296875 -2.15625 0.5q-0.8125 0.125 -1.15625 0.265625q-0.328125 0.140625 -0.515625 0.421875q-0.171875 0.28125 -0.171875 0.625q0 0.53125 0.390625 0.890625q0.40625 0.34375 1.171875 0.34375q0.765625 0 1.359375 -0.328125q0.59375 -0.34375 0.875 -0.921875q0.203125 -0.4375 0.203125 -1.3125l0 -0.484375zm6.072983 2.734375l0.1875 1.15625q-0.5625 0.125 -1.0 0.125q-0.71875 0 -1.125 -0.234375q-0.390625 -0.234375 -0.546875 -0.59375q-0.15625 -0.375 -0.15625 -1.5625l0 -4.46875l-0.96875 0l0 -1.03125l0.96875 0l0 -1.921875l1.3125 -0.796875l0 2.71875l1.328125 0l0 1.03125l-1.328125 0l0 4.546875q0 0.5625 0.0625 0.734375q0.078125 0.15625 0.234375 0.25q0.15625 0.09375 0.4375 0.09375q0.234375 0 0.59375 -0.046875zm1.5563507 -5.109375l0 -1.5l1.5 0l0 1.5l-1.5 0zm0 6.28125l0 -1.5l1.5 0l0 1.5l-1.5 0z" fill-rule="nonzero"></path><path fill="#0b5394" d="m106.56818 191.02489l0 -7.78125l1.1875 0l0 1.09375q0.359375 -0.578125 0.96875 -0.921875q0.609375 -0.34375 1.390625 -0.34375q0.859375 0 1.40625 0.359375q0.5625 0.359375 0.78125 1.0q0.921875 -1.359375 2.40625 -1.359375q1.15625 0 1.78125 0.640625q0.625 0.640625 0.625 1.96875l0 5.34375l-1.3125 0l0 -4.90625q0 -0.78125 -0.125 -1.125q-0.125 -0.359375 -0.46875 -0.5625q-0.34375 -0.21875 -0.796875 -0.21875q-0.8125 0 -1.359375 0.546875q-0.546875 0.546875 -0.546875 1.75l0 4.515625l-1.3125 0l0 -5.046875q0 -0.890625 -0.328125 -1.328125q-0.3125 -0.4375 -1.046875 -0.4375q-0.5625 0 -1.03125 0.296875q-0.46875 0.296875 -0.6875 0.859375q-0.203125 0.5625 -0.203125 1.625l0 4.03125l-1.328125 0zm17.286896 -0.953125q-0.734375 0.609375 -1.40625 0.875q-0.671875 0.25 -1.453125 0.25q-1.28125 0 -1.96875 -0.625q-0.6875 -0.625 -0.6875 -1.59375q0 -0.578125 0.25 -1.046875q0.265625 -0.46875 0.6875 -0.75q0.421875 -0.296875 0.953125 -0.4375q0.375 -0.109375 1.171875 -0.203125q1.59375 -0.1875 2.34375 -0.453125q0.015625 -0.265625 0.015625 -0.34375q0 -0.8125 -0.375 -1.140625q-0.515625 -0.4375 -1.5 -0.4375q-0.9375 0 -1.390625 0.328125q-0.4375 0.3125 -0.640625 1.140625l-1.296875 -0.171875q0.171875 -0.828125 0.578125 -1.328125q0.40625 -0.515625 1.171875 -0.78125q0.765625 -0.28125 1.765625 -0.28125q1.0 0 1.609375 0.234375q0.625 0.234375 0.921875 0.59375q0.296875 0.34375 0.40625 0.890625q0.0625 0.34375 0.0625 1.21875l0 1.75q0 1.84375 0.078125 2.328125q0.09375 0.484375 0.34375 0.9375l-1.375 0q-0.203125 -0.40625 -0.265625 -0.953125zm-0.109375 -2.953125q-0.71875 0.296875 -2.15625 0.5q-0.8125 0.125 -1.15625 0.265625q-0.328125 0.140625 -0.515625 0.421875q-0.171875 0.28125 -0.171875 0.625q0 0.53125 0.390625 0.890625q0.40625 0.34375 1.171875 0.34375q0.765625 0 1.359375 -0.328125q0.59375 -0.34375 0.875 -0.921875q0.203125 -0.4375 0.203125 -1.3125l0 -0.484375zm2.6667328 1.578125l1.296875 -0.203125q0.109375 0.78125 0.609375 1.203125q0.5 0.421875 1.40625 0.421875q0.90625 0 1.34375 -0.359375q0.4375 -0.375 0.4375 -0.875q0 -0.453125 -0.390625 -0.703125q-0.265625 -0.1875 -1.34375 -0.453125q-1.453125 -0.359375 -2.015625 -0.625q-0.546875 -0.28125 -0.84375 -0.75q-0.28125 -0.46875 -0.28125 -1.046875q0 -0.515625 0.234375 -0.953125q0.234375 -0.453125 0.640625 -0.734375q0.3125 -0.234375 0.84375 -0.390625q0.53125 -0.15625 1.140625 -0.15625q0.90625 0 1.59375 0.265625q0.703125 0.265625 1.03125 0.71875q0.328125 0.4375 0.453125 1.203125l-1.28125 0.171875q-0.09375 -0.609375 -0.515625 -0.9375q-0.421875 -0.34375 -1.1875 -0.34375q-0.90625 0 -1.296875 0.3125q-0.390625 0.296875 -0.390625 0.703125q0 0.25 0.15625 0.453125q0.171875 0.21875 0.515625 0.359375q0.1875 0.0625 1.15625 0.328125q1.40625 0.375 1.953125 0.609375q0.5625 0.234375 0.875 0.703125q0.3125 0.453125 0.3125 1.125q0 0.65625 -0.390625 1.234375q-0.375 0.578125 -1.109375 0.90625q-0.71875 0.3125 -1.640625 0.3125q-1.515625 0 -2.3125 -0.625q-0.78125 -0.625 -1.0 -1.875zm10.734375 1.15625l0.1875 1.15625q-0.5625 0.125 -1.0 0.125q-0.71875 0 -1.125 -0.234375q-0.390625 -0.234375 -0.546875 -0.59375q-0.15625 -0.375 -0.15625 -1.5625l0 -4.46875l-0.96875 0l0 -1.03125l0.96875 0l0 -1.921875l1.3125 -0.796875l0 2.71875l1.328125 0l0 1.03125l-1.328125 0l0 4.546875q0 0.5625 0.0625 0.734375q0.078125 0.15625 0.234375 0.25q0.15625 0.09375 0.4375 0.09375q0.234375 0 0.59375 -0.046875zm6.5094757 -1.328125l1.359375 0.15625q-0.3125 1.203125 -1.1875 1.859375q-0.875 0.65625 -2.234375 0.65625q-1.703125 0 -2.703125 -1.046875q-1.0 -1.046875 -1.0 -2.953125q0 -1.953125 1.015625 -3.03125q1.015625 -1.09375 2.625 -1.09375q1.5625 0 2.546875 1.0625q0.984375 1.0625 0.984375 2.984375q0 0.125 0 0.359375l-5.8125 0q0.078125 1.28125 0.71875 1.96875q0.65625 0.671875 1.640625 0.671875q0.71875 0 1.234375 -0.375q0.515625 -0.390625 0.8125 -1.21875zm-4.328125 -2.140625l4.34375 0q-0.09375 -0.984375 -0.5 -1.46875q-0.625 -0.765625 -1.625 -0.765625q-0.921875 0 -1.546875 0.609375q-0.609375 0.609375 -0.671875 1.625zm7.135483 4.640625l0 -7.78125l1.1875 0l0 1.1875q0.453125 -0.828125 0.84375 -1.09375q0.390625 -0.265625 0.84375 -0.265625q0.671875 0 1.359375 0.421875l-0.453125 1.21875q-0.484375 -0.28125 -0.96875 -0.28125q-0.4375 0 -0.78125 0.265625q-0.34375 0.25 -0.484375 0.71875q-0.21875 0.703125 -0.21875 1.53125l0 4.078125l-1.328125 0zm5.2712708 -6.28125l0 -1.5l1.5 0l0 1.5l-1.5 0zm0 6.28125l0 -1.5l1.5 0l0 1.5l-1.5 0z" fill-rule="nonzero"></path><path fill="#0b5394" d="m178.57251 150.13426q-0.375 -0.234375 -0.78125 -0.34375q-0.390625 -0.109375 -0.828125 -0.109375q-0.875 0 -1.390625 0.28125q-0.21875 0.125 -0.21875 0.265625q0 0.171875 0.296875 0.34375q0.234375 0.109375 1.046875 0.21875q1.5 0.203125 2.078125 0.40625q0.78125 0.28125 1.1875 0.8125q0.421875 0.53125 0.421875 1.125q0 0.8125 -0.703125 1.34375q-1.015625 0.78125 -2.65625 0.78125q-0.640625 0 -1.203125 -0.109375q-0.546875 -0.109375 -1.015625 -0.328125q-0.109375 0.09375 -0.234375 0.15625q-0.125 0.046875 -0.25 0.046875q-0.34375 0 -0.5625 -0.234375q-0.203125 -0.234375 -0.203125 -0.78125l0 -0.5q0 -0.546875 0.203125 -0.765625q0.21875 -0.234375 0.546875 -0.234375q0.265625 0 0.453125 0.15625q0.1875 0.140625 0.28125 0.5q0.34375 0.296875 0.828125 0.453125q0.484375 0.140625 1.125 0.140625q1.03125 0 1.59375 -0.3125q0.28125 -0.171875 0.28125 -0.34375q0 -0.296875 -0.390625 -0.484375q-0.390625 -0.1875 -1.609375 -0.3125q-1.8125 -0.203125 -2.421875 -0.734375q-0.59375 -0.53125 -0.59375 -1.328125q0 -0.796875 0.671875 -1.328125q0.921875 -0.734375 2.421875 -0.734375q0.515625 0 1.0 0.09375q0.484375 0.09375 0.921875 0.296875q0.140625 -0.09375 0.25 -0.140625q0.125 -0.0625 0.234375 -0.0625q0.296875 0 0.5 0.234375q0.21875 0.234375 0.21875 0.78125l0 0.359375q0 0.484375 -0.125 0.671875q-0.234375 0.328125 -0.640625 0.328125q-0.265625 0 -0.46875 -0.15625q-0.203125 -0.171875 -0.265625 -0.453125zm6.7951813 -0.265625l0 3.015625q0 0.484375 0.203125 0.640625q0.3125 0.234375 1.09375 0.234375q1.15625 0 2.125 -0.484375q0.375 -0.1875 0.59375 -0.1875q0.296875 0 0.5 0.21875q0.21875 0.21875 0.21875 0.53125q0 0.296875 -0.234375 0.5q-0.359375 0.34375 -1.421875 0.640625q-1.046875 0.28125 -1.78125 0.28125q-1.390625 0 -2.09375 -0.59375q-0.703125 -0.609375 -0.703125 -1.484375l0 -3.3125l-0.53125 0q-0.546875 0 -0.78125 -0.203125q-0.234375 -0.203125 -0.234375 -0.546875q0 -0.328125 0.234375 -0.53125q0.234375 -0.21875 0.78125 -0.21875l0.53125 0l0 -1.34375q0 -0.546875 0.203125 -0.78125q0.21875 -0.234375 0.5625 -0.234375q0.328125 0 0.53125 0.234375q0.203125 0.234375 0.203125 0.78125l0 1.34375l2.78125 0q0.546875 0 0.765625 0.21875q0.234375 0.203125 0.234375 0.546875q0 0.328125 -0.234375 0.53125q-0.21875 0.203125 -0.765625 0.203125l-2.78125 0zm8.857681 -1.5l0 0.9375q0.953125 -0.671875 1.484375 -0.890625q0.546875 -0.234375 1.03125 -0.234375q0.734375 0 1.421875 0.53125q0.46875 0.375 0.46875 0.75q0 0.328125 -0.234375 0.546875q-0.21875 0.21875 -0.53125 0.21875q-0.28125 0 -0.59375 -0.265625q-0.296875 -0.28125 -0.546875 -0.28125q-0.3125 0 -0.9375 0.390625q-0.625 0.390625 -1.5625 1.1875l0 2.265625l2.140625 0q0.546875 0 0.765625 0.21875q0.234375 0.203125 0.234375 0.53125q0 0.328125 -0.234375 0.546875q-0.21875 0.203125 -0.765625 0.203125l-4.53125 0q-0.546875 0 -0.78125 -0.203125q-0.21875 -0.21875 -0.21875 -0.546875q0 -0.328125 0.21875 -0.53125q0.234375 -0.21875 0.78125 -0.21875l0.890625 0l0 -3.65625l-0.546875 0q-0.53125 0 -0.765625 -0.203125q-0.234375 -0.203125 -0.234375 -0.546875q0 -0.328125 0.234375 -0.53125q0.234375 -0.21875 0.765625 -0.21875l2.046875 0zm9.654556 -2.84375l0 1.59375l-1.796875 0l0 -1.59375l1.796875 0zm0.203125 2.84375l0 5.15625l1.796875 0q0.546875 0 0.765625 0.21875q0.234375 0.203125 0.234375 0.53125q0 0.328125 -0.234375 0.546875q-0.21875 0.203125 -0.765625 0.203125l-5.109375 0q-0.53125 0 -0.765625 -0.203125q-0.234375 -0.21875 -0.234375 -0.546875q0 -0.328125 0.234375 -0.53125q0.234375 -0.21875 0.765625 -0.21875l1.8125 0l0 -3.65625l-1.21875 0q-0.53125 0 -0.765625 -0.203125q-0.234375 -0.203125 -0.234375 -0.546875q0 -0.328125 0.234375 -0.53125q0.234375 -0.21875 0.765625 -0.21875l2.71875 0zm6.5295563 0l0 0.515625q0.40625 -0.359375 0.890625 -0.53125q0.5 -0.171875 1.078125 -0.171875q1.34375 0 2.109375 0.828125q0.625 0.65625 0.625 1.71875l0 2.796875q0.46875 0 0.6875 0.21875q0.234375 0.203125 0.234375 0.53125q0 0.328125 -0.234375 0.546875q-0.21875 0.203125 -0.765625 0.203125l-1.359375 0q-0.53125 0 -0.765625 -0.203125q-0.234375 -0.21875 -0.234375 -0.546875q0 -0.328125 0.21875 -0.53125q0.234375 -0.21875 0.71875 -0.21875l0 -2.84375q0 -0.484375 -0.265625 -0.703125q-0.34375 -0.296875 -1.03125 -0.296875q-0.53125 0 -0.921875 0.203125q-0.390625 0.203125 -0.984375 0.84375l0 2.796875q0.578125 0 0.75 0.109375q0.359375 0.21875 0.359375 0.640625q0 0.328125 -0.234375 0.546875q-0.234375 0.203125 -0.78125 0.203125l-1.703125 0q-0.546875 0 -0.78125 -0.203125q-0.21875 -0.21875 -0.21875 -0.546875q0 -0.421875 0.34375 -0.640625q0.1875 -0.109375 0.765625 -0.109375l0 -3.65625q-0.484375 0 -0.71875 -0.203125q-0.21875 -0.21875 -0.21875 -0.546875q0 -0.328125 0.234375 -0.53125q0.234375 -0.21875 0.765625 -0.21875l1.4375 0zm11.967056 0.453125l0 -0.453125l1.75 0q0.546875 0 0.765625 0.21875q0.234375 0.203125 0.234375 0.546875q0 0.328125 -0.234375 0.53125q-0.21875 0.203125 -0.765625 0.203125l-0.25 0l0 5.46875q0 0.796875 -0.34375 1.375q-0.328125 0.59375 -1.015625 1.015625q-0.6875 0.4375 -1.546875 0.4375l-1.703125 0q-0.546875 0 -0.78125 -0.21875q-0.21875 -0.203125 -0.21875 -0.53125q0 -0.34375 0.21875 -0.546875q0.234375 -0.203125 0.78125 -0.203125l1.65625 0q0.6875 0 1.0625 -0.375q0.390625 -0.375 0.390625 -0.953125l0 -0.734375q-0.5 0.328125 -1.015625 0.484375q-0.515625 0.171875 -1.0625 0.171875q-1.53125 0 -2.5625 -1.015625q-1.03125 -1.03125 -1.03125 -2.53125q0 -1.515625 1.03125 -2.53125q1.03125 -1.03125 2.5625 -1.03125q0.578125 0 1.09375 0.171875q0.515625 0.15625 0.984375 0.5zm-0.015625 2.875q0 -0.828125 -0.609375 -1.4375q-0.609375 -0.609375 -1.46875 -0.609375q-0.859375 0 -1.46875 0.609375q-0.609375 0.609375 -0.609375 1.4375q0 0.84375 0.609375 1.453125q0.609375 0.59375 1.46875 0.59375q0.859375 0 1.46875 -0.59375q0.609375 -0.609375 0.609375 -1.453125z" fill-rule="nonzero"></path><path fill="#0b5394" d="m178.57251 168.13426q-0.375 -0.234375 -0.78125 -0.34375q-0.390625 -0.109375 -0.828125 -0.109375q-0.875 0 -1.390625 0.28125q-0.21875 0.125 -0.21875 0.265625q0 0.171875 0.296875 0.34375q0.234375 0.109375 1.046875 0.21875q1.5 0.203125 2.078125 0.40625q0.78125 0.28125 1.1875 0.8125q0.421875 0.53125 0.421875 1.125q0 0.8125 -0.703125 1.34375q-1.015625 0.78125 -2.65625 0.78125q-0.640625 0 -1.203125 -0.109375q-0.546875 -0.109375 -1.015625 -0.328125q-0.109375 0.09375 -0.234375 0.15625q-0.125 0.046875 -0.25 0.046875q-0.34375 0 -0.5625 -0.234375q-0.203125 -0.234375 -0.203125 -0.78125l0 -0.5q0 -0.546875 0.203125 -0.765625q0.21875 -0.234375 0.546875 -0.234375q0.265625 0 0.453125 0.15625q0.1875 0.140625 0.28125 0.5q0.34375 0.296875 0.828125 0.453125q0.484375 0.140625 1.125 0.140625q1.03125 0 1.59375 -0.3125q0.28125 -0.171875 0.28125 -0.34375q0 -0.296875 -0.390625 -0.484375q-0.390625 -0.1875 -1.609375 -0.3125q-1.8125 -0.203125 -2.421875 -0.734375q-0.59375 -0.53125 -0.59375 -1.328125q0 -0.796875 0.671875 -1.328125q0.921875 -0.734375 2.421875 -0.734375q0.515625 0 1.0 0.09375q0.484375 0.09375 0.921875 0.296875q0.140625 -0.09375 0.25 -0.140625q0.125 -0.0625 0.234375 -0.0625q0.296875 0 0.5 0.234375q0.21875 0.234375 0.21875 0.78125l0 0.359375q0 0.484375 -0.125 0.671875q-0.234375 0.328125 -0.640625 0.328125q-0.265625 0 -0.46875 -0.15625q-0.203125 -0.171875 -0.265625 -0.453125zm6.7951813 -0.265625l0 3.015625q0 0.484375 0.203125 0.640625q0.3125 0.234375 1.09375 0.234375q1.15625 0 2.125 -0.484375q0.375 -0.1875 0.59375 -0.1875q0.296875 0 0.5 0.21875q0.21875 0.21875 0.21875 0.53125q0 0.296875 -0.234375 0.5q-0.359375 0.34375 -1.421875 0.640625q-1.046875 0.28125 -1.78125 0.28125q-1.390625 0 -2.09375 -0.59375q-0.703125 -0.609375 -0.703125 -1.484375l0 -3.3125l-0.53125 0q-0.546875 0 -0.78125 -0.203125q-0.234375 -0.203125 -0.234375 -0.546875q0 -0.328125 0.234375 -0.53125q0.234375 -0.21875 0.78125 -0.21875l0.53125 0l0 -1.34375q0 -0.546875 0.203125 -0.78125q0.21875 -0.234375 0.5625 -0.234375q0.328125 0 0.53125 0.234375q0.203125 0.234375 0.203125 0.78125l0 1.34375l2.78125 0q0.546875 0 0.765625 0.21875q0.234375 0.203125 0.234375 0.546875q0 0.328125 -0.234375 0.53125q-0.21875 0.203125 -0.765625 0.203125l-2.78125 0zm8.857681 -1.5l0 0.9375q0.953125 -0.671875 1.484375 -0.890625q0.546875 -0.234375 1.03125 -0.234375q0.734375 0 1.421875 0.53125q0.46875 0.375 0.46875 0.75q0 0.328125 -0.234375 0.546875q-0.21875 0.21875 -0.53125 0.21875q-0.28125 0 -0.59375 -0.265625q-0.296875 -0.28125 -0.546875 -0.28125q-0.3125 0 -0.9375 0.390625q-0.625 0.390625 -1.5625 1.1875l0 2.265625l2.140625 0q0.546875 0 0.765625 0.21875q0.234375 0.203125 0.234375 0.53125q0 0.328125 -0.234375 0.546875q-0.21875 0.203125 -0.765625 0.203125l-4.53125 0q-0.546875 0 -0.78125 -0.203125q-0.21875 -0.21875 -0.21875 -0.546875q0 -0.328125 0.21875 -0.53125q0.234375 -0.21875 0.78125 -0.21875l0.890625 0l0 -3.65625l-0.546875 0q-0.53125 0 -0.765625 -0.203125q-0.234375 -0.203125 -0.234375 -0.546875q0 -0.328125 0.234375 -0.53125q0.234375 -0.21875 0.765625 -0.21875l2.046875 0zm9.654556 -2.84375l0 1.59375l-1.796875 0l0 -1.59375l1.796875 0zm0.203125 2.84375l0 5.15625l1.796875 0q0.546875 0 0.765625 0.21875q0.234375 0.203125 0.234375 0.53125q0 0.328125 -0.234375 0.546875q-0.21875 0.203125 -0.765625 0.203125l-5.109375 0q-0.53125 0 -0.765625 -0.203125q-0.234375 -0.21875 -0.234375 -0.546875q0 -0.328125 0.234375 -0.53125q0.234375 -0.21875 0.765625 -0.21875l1.8125 0l0 -3.65625l-1.21875 0q-0.53125 0 -0.765625 -0.203125q-0.234375 -0.203125 -0.234375 -0.546875q0 -0.328125 0.234375 -0.53125q0.234375 -0.21875 0.765625 -0.21875l2.71875 0zm6.5295563 0l0 0.515625q0.40625 -0.359375 0.890625 -0.53125q0.5 -0.171875 1.078125 -0.171875q1.34375 0 2.109375 0.828125q0.625 0.65625 0.625 1.71875l0 2.796875q0.46875 0 0.6875 0.21875q0.234375 0.203125 0.234375 0.53125q0 0.328125 -0.234375 0.546875q-0.21875 0.203125 -0.765625 0.203125l-1.359375 0q-0.53125 0 -0.765625 -0.203125q-0.234375 -0.21875 -0.234375 -0.546875q0 -0.328125 0.21875 -0.53125q0.234375 -0.21875 0.71875 -0.21875l0 -2.84375q0 -0.484375 -0.265625 -0.703125q-0.34375 -0.296875 -1.03125 -0.296875q-0.53125 0 -0.921875 0.203125q-0.390625 0.203125 -0.984375 0.84375l0 2.796875q0.578125 0 0.75 0.109375q0.359375 0.21875 0.359375 0.640625q0 0.328125 -0.234375 0.546875q-0.234375 0.203125 -0.78125 0.203125l-1.703125 0q-0.546875 0 -0.78125 -0.203125q-0.21875 -0.21875 -0.21875 -0.546875q0 -0.421875 0.34375 -0.640625q0.1875 -0.109375 0.765625 -0.109375l0 -3.65625q-0.484375 0 -0.71875 -0.203125q-0.21875 -0.21875 -0.21875 -0.546875q0 -0.328125 0.234375 -0.53125q0.234375 -0.21875 0.765625 -0.21875l1.4375 0zm11.967056 0.453125l0 -0.453125l1.75 0q0.546875 0 0.765625 0.21875q0.234375 0.203125 0.234375 0.546875q0 0.328125 -0.234375 0.53125q-0.21875 0.203125 -0.765625 0.203125l-0.25 0l0 5.46875q0 0.796875 -0.34375 1.375q-0.328125 0.59375 -1.015625 1.015625q-0.6875 0.4375 -1.546875 0.4375l-1.703125 0q-0.546875 0 -0.78125 -0.21875q-0.21875 -0.203125 -0.21875 -0.53125q0 -0.34375 0.21875 -0.546875q0.234375 -0.203125 0.78125 -0.203125l1.65625 0q0.6875 0 1.0625 -0.375q0.390625 -0.375 0.390625 -0.953125l0 -0.734375q-0.5 0.328125 -1.015625 0.484375q-0.515625 0.171875 -1.0625 0.171875q-1.53125 0 -2.5625 -1.015625q-1.03125 -1.03125 -1.03125 -2.53125q0 -1.515625 1.03125 -2.53125q1.03125 -1.03125 2.5625 -1.03125q0.578125 0 1.09375 0.171875q0.515625 0.15625 0.984375 0.5zm-0.015625 2.875q0 -0.828125 -0.609375 -1.4375q-0.609375 -0.609375 -1.46875 -0.609375q-0.859375 0 -1.46875 0.609375q-0.609375 0.609375 -0.609375 1.4375q0 0.84375 0.609375 1.453125q0.609375 0.59375 1.46875 0.59375q0.859375 0 1.46875 -0.59375q0.609375 -0.609375 0.609375 -1.453125z" fill-rule="nonzero"></path><path fill="#0b5394" d="m175.05688 181.52489l0 3.375q0.546875 -0.359375 1.109375 -0.53125q0.578125 -0.1875 1.15625 -0.1875q1.5625 0 2.640625 1.078125q1.078125 1.078125 1.078125 2.59375q0 1.453125 -1.03125 2.4375q-1.03125 0.96875 -2.71875 0.96875q-0.609375 0 -1.171875 -0.15625q-0.546875 -0.140625 -1.0625 -0.4375l0 0.359375l-1.765625 0q-0.53125 0 -0.765625 -0.203125q-0.234375 -0.21875 -0.234375 -0.546875q0 -0.328125 0.234375 -0.53125q0.234375 -0.21875 0.765625 -0.21875l0.265625 0l0 -6.5l-0.265625 0q-0.53125 0 -0.765625 -0.203125q-0.234375 -0.21875 -0.234375 -0.546875q0 -0.328125 0.234375 -0.53125q0.234375 -0.21875 0.765625 -0.21875l1.765625 0zm4.484375 6.375q0 -0.9375 -0.65625 -1.578125q-0.640625 -0.640625 -1.59375 -0.640625q-0.9375 0 -1.59375 0.640625q-0.640625 0.640625 -0.640625 1.546875q0 0.828125 0.578125 1.359375q0.59375 0.53125 1.65625 0.53125q1.078125 0 1.65625 -0.53125q0.59375 -0.53125 0.59375 -1.328125zm10.107681 -0.078125q0 0.859375 -0.484375 1.671875q-0.484375 0.8125 -1.4375 1.296875q-0.9375 0.46875 -1.96875 0.46875q-1.03125 0 -1.96875 -0.46875q-0.9375 -0.46875 -1.4375 -1.28125q-0.484375 -0.8125 -0.484375 -1.703125q0 -0.890625 0.5 -1.765625q0.5 -0.875 1.4375 -1.359375q0.9375 -0.5 1.953125 -0.5q1.015625 0 1.96875 0.515625q0.953125 0.5 1.4375 1.359375q0.484375 0.859375 0.484375 1.765625zm-1.5 0.015625q0 -0.734375 -0.53125 -1.34375q-0.703125 -0.8125 -1.859375 -0.8125q-1.015625 0 -1.703125 0.65625q-0.6875 0.640625 -0.6875 1.5q0 0.703125 0.6875 1.3125q0.703125 0.609375 1.703125 0.609375q1.0 0 1.6875 -0.609375q0.703125 -0.609375 0.703125 -1.3125zm10.295181 -0.015625q0 0.859375 -0.484375 1.671875q-0.484375 0.8125 -1.4375 1.296875q-0.9375 0.46875 -1.96875 0.46875q-1.03125 0 -1.96875 -0.46875q-0.9375 -0.46875 -1.4375 -1.28125q-0.484375 -0.8125 -0.484375 -1.703125q0 -0.890625 0.5 -1.765625q0.5 -0.875 1.4375 -1.359375q0.9375 -0.5 1.953125 -0.5q1.015625 0 1.96875 0.515625q0.953125 0.5 1.4375 1.359375q0.484375 0.859375 0.484375 1.765625zm-1.5 0.015625q0 -0.734375 -0.53125 -1.34375q-0.703125 -0.8125 -1.859375 -0.8125q-1.015625 0 -1.703125 0.65625q-0.6875 0.640625 -0.6875 1.5q0 0.703125 0.6875 1.3125q0.703125 0.609375 1.703125 0.609375q1.0 0 1.6875 -0.609375q0.703125 -0.609375 0.703125 -1.3125zm7.1389313 -6.3125l0 8.0l1.796875 0q0.546875 0 0.78125 0.21875q0.234375 0.203125 0.234375 0.53125q0 0.328125 -0.234375 0.546875q-0.234375 0.203125 -0.78125 0.203125l-5.09375 0q-0.546875 0 -0.78125 -0.203125q-0.234375 -0.21875 -0.234375 -0.546875q0 -0.328125 0.234375 -0.53125q0.234375 -0.21875 0.78125 -0.21875l1.796875 0l0 -6.5l-1.203125 0q-0.546875 0 -0.78125 -0.203125q-0.234375 -0.21875 -0.234375 -0.546875q0 -0.328125 0.234375 -0.53125q0.234375 -0.21875 0.78125 -0.21875l2.703125 0zm11.810806 6.9375l-6.15625 0q0.234375 0.578125 0.828125 0.9375q0.59375 0.359375 1.625 0.359375q0.828125 0 2.21875 -0.359375q0.5625 -0.140625 0.78125 -0.140625q0.296875 0 0.5 0.21875q0.21875 0.203125 0.21875 0.53125q0 0.296875 -0.21875 0.5q-0.296875 0.265625 -1.4375 0.515625q-1.125 0.234375 -2.171875 0.234375q-1.8125 0 -2.890625 -1.015625q-1.078125 -1.015625 -1.078125 -2.5q0 -1.578125 1.15625 -2.5625q1.171875 -1.0 2.703125 -1.0q0.921875 0 1.6875 0.328125q0.765625 0.3125 1.125 0.6875q0.53125 0.546875 0.875 1.34375q0.234375 0.546875 0.234375 1.28125l0 0.640625zm-1.65625 -1.5q-0.34375 -0.640625 -0.90625 -0.953125q-0.546875 -0.328125 -1.328125 -0.328125q-0.75 0 -1.3125 0.328125q-0.5625 0.3125 -0.90625 0.953125l4.453125 0zm8.045181 4.0625l0 -0.359375q-0.578125 0.3125 -1.265625 0.453125q-0.671875 0.15625 -1.21875 0.15625q-1.21875 0 -1.96875 -0.640625q-0.75 -0.640625 -0.75 -1.421875q0 -0.9375 0.953125 -1.75q0.96875 -0.8125 2.671875 -0.8125q0.671875 0 1.578125 0.15625l0 -0.359375q0 -0.34375 -0.296875 -0.546875q-0.28125 -0.21875 -1.109375 -0.21875q-0.65625 0 -1.71875 0.265625q-0.390625 0.09375 -0.625 0.09375q-0.296875 0 -0.5 -0.21875q-0.203125 -0.21875 -0.203125 -0.546875q0 -0.203125 0.0625 -0.328125q0.078125 -0.140625 0.203125 -0.21875q0.140625 -0.09375 0.5625 -0.21875q0.546875 -0.15625 1.125 -0.234375q0.578125 -0.09375 1.046875 -0.09375q1.40625 0 2.171875 0.609375q0.78125 0.59375 0.78125 1.640625l0 3.09375l0.25 0q0.546875 0 0.765625 0.21875q0.234375 0.203125 0.234375 0.53125q0 0.328125 -0.234375 0.546875q-0.21875 0.203125 -0.765625 0.203125l-1.75 0zm0 -2.6875q-0.90625 -0.171875 -1.671875 -0.171875q-0.90625 0 -1.578125 0.4375q-0.40625 0.296875 -0.40625 0.578125q0 0.21875 0.203125 0.34375q0.359375 0.25 1.0 0.25q0.546875 0 1.21875 -0.203125q0.6875 -0.21875 1.234375 -0.59375l0 -0.640625zm5.9201813 -3.96875l0 0.515625q0.40625 -0.359375 0.890625 -0.53125q0.5 -0.171875 1.078125 -0.171875q1.34375 0 2.109375 0.828125q0.625 0.65625 0.625 1.71875l0 2.796875q0.46875 0 0.6875 0.21875q0.234375 0.203125 0.234375 0.53125q0 0.328125 -0.234375 0.546875q-0.21875 0.203125 -0.765625 0.203125l-1.359375 0q-0.53125 0 -0.765625 -0.203125q-0.234375 -0.21875 -0.234375 -0.546875q0 -0.328125 0.21875 -0.53125q0.234375 -0.21875 0.71875 -0.21875l0 -2.84375q0 -0.484375 -0.265625 -0.703125q-0.34375 -0.296875 -1.03125 -0.296875q-0.53125 0 -0.921875 0.203125q-0.390625 0.203125 -0.984375 0.84375l0 2.796875q0.578125 0 0.75 0.109375q0.359375 0.21875 0.359375 0.640625q0 0.328125 -0.234375 0.546875q-0.234375 0.203125 -0.78125 0.203125l-1.703125 0q-0.546875 0 -0.78125 -0.203125q-0.21875 -0.21875 -0.21875 -0.546875q0 -0.421875 0.34375 -0.640625q0.1875 -0.109375 0.765625 -0.109375l0 -3.65625q-0.484375 0 -0.71875 -0.203125q-0.21875 -0.21875 -0.21875 -0.546875q0 -0.328125 0.234375 -0.53125q0.234375 -0.21875 0.765625 -0.21875l1.4375 0z" fill-rule="nonzero"></path><path fill="#0b5394" d="m261.6036 185.55864q0.21875 0.234375 0.28125 0.46875q0.078125 0.21875 0.078125 0.71875l0 1.90625q0 0.25 0.09375 0.34375q0.09375 0.109375 0.328125 0.125q0.25 0.03125 0.40625 0.1875q0.171875 0.171875 0.171875 0.421875q0 0.265625 -0.1875 0.4375q-0.171875 0.171875 -0.453125 0.171875q-0.390625 0 -0.75 -0.21875q-0.359375 -0.203125 -0.640625 -0.671875q-0.171875 -0.296875 -0.171875 -0.703125l0 -2.109375q0 -0.265625 -0.078125 -0.359375q-0.078125 -0.09375 -0.359375 -0.125q-0.265625 -0.03125 -0.40625 -0.1875q-0.140625 -0.15625 -0.140625 -0.40625q0 -0.265625 0.140625 -0.421875q0.140625 -0.171875 0.40625 -0.203125q0.28125 -0.03125 0.34375 -0.109375q0.09375 -0.109375 0.09375 -0.359375l0 -2.0q0 -0.640625 0.46875 -1.109375q0.46875 -0.484375 1.09375 -0.484375q0.28125 0 0.453125 0.1875q0.1875 0.171875 0.1875 0.421875q0 0.25 -0.171875 0.421875q-0.15625 0.15625 -0.40625 0.1875q-0.25 0.015625 -0.3125 0.109375q-0.109375 0.125 -0.109375 0.359375l0 1.90625q0 0.40625 -0.078125 0.625q-0.078125 0.21875 -0.28125 0.46875zm9.513672 -2.421875l0 4.125q0.375 0 0.546875 0.171875q0.1875 0.171875 0.1875 0.4375q0 0.265625 -0.1875 0.4375q-0.171875 0.15625 -0.609375 0.15625l-1.140625 0l0 -0.28125q-0.515625 0.234375 -0.984375 0.34375q-0.46875 0.125 -0.890625 0.125q-0.59375 0 -1.03125 -0.25q-0.421875 -0.25 -0.6875 -0.6875q-0.171875 -0.3125 -0.171875 -0.78125l0 -2.59375l-0.203125 0q-0.4375 0 -0.625 -0.15625q-0.1875 -0.171875 -0.1875 -0.4375q0 -0.265625 0.1875 -0.4375q0.1875 -0.171875 0.625 -0.171875l1.40625 0l0 3.578125q0 0.390625 0.171875 0.5625q0.1875 0.171875 0.578125 0.171875q0.359375 0 0.78125 -0.140625q0.421875 -0.140625 1.03125 -0.515625l0 -2.453125l-0.4375 0q-0.4375 0 -0.625 -0.15625q-0.171875 -0.171875 -0.171875 -0.4375q0 -0.265625 0.171875 -0.4375q0.1875 -0.171875 0.625 -0.171875l1.640625 0zm5.951172 1.40625q-0.296875 -0.171875 -0.625 -0.265625q-0.3125 -0.09375 -0.671875 -0.09375q-0.703125 0 -1.109375 0.234375q-0.171875 0.09375 -0.171875 0.21875q0 0.125 0.234375 0.265625q0.1875 0.09375 0.84375 0.171875q1.1875 0.171875 1.65625 0.328125q0.625 0.21875 0.953125 0.65625q0.34375 0.421875 0.34375 0.890625q0 0.640625 -0.578125 1.078125q-0.8125 0.625 -2.109375 0.625q-0.53125 0 -0.96875 -0.09375q-0.4375 -0.078125 -0.8125 -0.265625q-0.078125 0.078125 -0.1875 0.125q-0.09375 0.046875 -0.203125 0.046875q-0.28125 0 -0.453125 -0.1875q-0.15625 -0.1875 -0.15625 -0.625l0 -0.40625q0 -0.421875 0.15625 -0.609375q0.171875 -0.1875 0.4375 -0.1875q0.21875 0 0.359375 0.125q0.15625 0.109375 0.234375 0.40625q0.28125 0.234375 0.65625 0.359375q0.390625 0.109375 0.90625 0.109375q0.8125 0 1.28125 -0.25q0.21875 -0.125 0.21875 -0.265625q0 -0.234375 -0.3125 -0.390625q-0.3125 -0.15625 -1.28125 -0.265625q-1.453125 -0.140625 -1.9375 -0.578125q-0.484375 -0.421875 -0.484375 -1.0625q0 -0.640625 0.546875 -1.0625q0.734375 -0.59375 1.921875 -0.59375q0.421875 0 0.796875 0.078125q0.390625 0.078125 0.75 0.25q0.109375 -0.078125 0.203125 -0.125q0.09375 -0.046875 0.171875 -0.046875q0.25 0 0.40625 0.1875q0.171875 0.1875 0.171875 0.625l0 0.296875q0 0.390625 -0.09375 0.53125q-0.1875 0.265625 -0.515625 0.265625q-0.203125 0 -0.375 -0.125q-0.15625 -0.140625 -0.203125 -0.375zm8.904297 1.875l-4.921875 0q0.1875 0.46875 0.65625 0.75q0.484375 0.28125 1.296875 0.28125q0.671875 0 1.78125 -0.28125q0.453125 -0.109375 0.625 -0.109375q0.25 0 0.40625 0.171875q0.171875 0.15625 0.171875 0.421875q0 0.234375 -0.171875 0.390625q-0.234375 0.21875 -1.15625 0.421875q-0.90625 0.1875 -1.734375 0.1875q-1.453125 0 -2.3125 -0.8125q-0.859375 -0.8125 -0.859375 -2.0q0 -1.265625 0.921875 -2.0625q0.9375 -0.796875 2.15625 -0.796875q0.734375 0 1.34375 0.265625q0.625 0.25 0.921875 0.546875q0.421875 0.4375 0.6875 1.078125q0.1875 0.453125 0.1875 1.03125l0 0.515625zm-1.328125 -1.203125q-0.265625 -0.515625 -0.71875 -0.765625q-0.4375 -0.265625 -1.0625 -0.265625q-0.609375 0 -1.0625 0.265625q-0.4375 0.25 -0.71875 0.765625l3.5625 0zm8.091797 -0.703125l-5.125 0q-0.4375 0 -0.625 -0.15625q-0.1875 -0.171875 -0.1875 -0.4375q0 -0.265625 0.1875 -0.4375q0.1875 -0.171875 0.625 -0.171875l5.125 0q0.4375 0 0.625 0.171875q0.1875 0.171875 0.1875 0.4375q0 0.265625 -0.1875 0.4375q-0.1875 0.15625 -0.625 0.15625zm0 2.265625l-5.125 0q-0.4375 0 -0.625 -0.15625q-0.1875 -0.171875 -0.1875 -0.4375q0 -0.28125 0.1875 -0.4375q0.1875 -0.171875 0.625 -0.171875l5.125 0q0.4375 0 0.625 0.171875q0.1875 0.15625 0.1875 0.4375q0 0.265625 -0.1875 0.4375q-0.1875 0.15625 -0.625 0.15625zm2.5761719 -5.5625l1.546875 0l-0.375 2.875q-0.03125 0.21875 -0.140625 0.3125q-0.09375 0.078125 -0.234375 0.078125q-0.15625 0 -0.25 -0.078125q-0.09375 -0.09375 -0.125 -0.3125l-0.421875 -2.875zm2.5 0l1.546875 0l-0.375 2.875q-0.03125 0.21875 -0.125 0.3125q-0.09375 0.078125 -0.25 0.078125q-0.15625 0 -0.25 -0.078125q-0.09375 -0.09375 -0.125 -0.3125l-0.421875 -2.875zm9.873047 4.6875q0 0.6875 -0.390625 1.34375q-0.375 0.640625 -1.140625 1.03125q-0.75 0.375 -1.578125 0.375q-0.8125 0 -1.5625 -0.375q-0.75 -0.375 -1.15625 -1.015625q-0.390625 -0.65625 -0.390625 -1.375q0 -0.71875 0.390625 -1.40625q0.40625 -0.703125 1.15625 -1.09375q0.75 -0.40625 1.5625 -0.40625q0.828125 0 1.578125 0.40625q0.765625 0.40625 1.140625 1.109375q0.390625 0.6875 0.390625 1.40625zm-1.203125 0q0 -0.578125 -0.40625 -1.0625q-0.578125 -0.65625 -1.5 -0.65625q-0.8125 0 -1.359375 0.53125q-0.546875 0.515625 -0.546875 1.203125q0 0.5625 0.546875 1.046875q0.5625 0.484375 1.359375 0.484375q0.8125 0 1.359375 -0.484375q0.546875 -0.484375 0.546875 -1.0625zm3.7949219 1.90625l0 1.96875l0.71875 0q0.4375 0 0.625 0.15625q0.1875 0.171875 0.1875 0.4375q0 0.265625 -0.1875 0.4375q-0.1875 0.171875 -0.625 0.171875l-2.125 0q-0.4375 0 -0.625 -0.171875q-0.171875 -0.171875 -0.171875 -0.4375q0 -0.265625 0.1875 -0.4375q0.1875 -0.15625 0.609375 -0.15625l0.203125 0l0 -5.4375l-0.203125 0q-0.4375 0 -0.625 -0.15625q-0.171875 -0.171875 -0.171875 -0.4375q0 -0.265625 0.171875 -0.4375q0.1875 -0.171875 0.625 -0.171875l1.40625 0l0 0.421875q0.421875 -0.296875 0.875 -0.4375q0.453125 -0.140625 0.921875 -0.140625q1.234375 0 2.09375 0.84375q0.875 0.828125 0.875 1.90625q0 1.1875 -1.03125 1.96875q-0.84375 0.640625 -1.921875 0.640625q-0.46875 0 -0.921875 -0.125q-0.4375 -0.140625 -0.890625 -0.40625zm3.5625 -2.0625q0 -0.265625 -0.203125 -0.640625q-0.1875 -0.390625 -0.609375 -0.65625q-0.40625 -0.265625 -0.96875 -0.265625q-0.890625 0 -1.421875 0.671875q-0.359375 0.46875 -0.359375 0.890625q0 0.484375 0.515625 0.9375q0.515625 0.453125 1.265625 0.453125q0.765625 0 1.265625 -0.453125q0.515625 -0.453125 0.515625 -0.9375zm4.841797 -1.40625l0 2.40625q0 0.390625 0.15625 0.515625q0.234375 0.1875 0.875 0.1875q0.921875 0 1.703125 -0.390625q0.296875 -0.140625 0.46875 -0.140625q0.234375 0 0.40625 0.171875q0.171875 0.171875 0.171875 0.421875q0 0.234375 -0.1875 0.40625q-0.296875 0.28125 -1.140625 0.515625q-0.84375 0.21875 -1.421875 0.21875q-1.125 0 -1.6875 -0.484375q-0.546875 -0.484375 -0.546875 -1.1875l0 -2.640625l-0.4375 0q-0.4375 0 -0.625 -0.15625q-0.171875 -0.171875 -0.171875 -0.4375q0 -0.265625 0.171875 -0.4375q0.1875 -0.171875 0.625 -0.171875l0.4375 0l0 -1.078125q0 -0.4375 0.15625 -0.609375q0.171875 -0.1875 0.4375 -0.1875q0.265625 0 0.4375 0.1875q0.171875 0.171875 0.171875 0.609375l0 1.078125l2.21875 0q0.421875 0 0.609375 0.171875q0.1875 0.171875 0.1875 0.4375q0 0.265625 -0.1875 0.4375q-0.1875 0.15625 -0.609375 0.15625l-2.21875 0zm7.919922 -3.46875l0 1.265625l-1.421875 0l0 -1.265625l1.421875 0zm0.171875 2.265625l0 4.125l1.4375 0q0.4375 0 0.609375 0.171875q0.1875 0.15625 0.1875 0.4375q0 0.265625 -0.1875 0.4375q-0.171875 0.15625 -0.609375 0.15625l-4.09375 0q-0.421875 0 -0.609375 -0.15625q-0.1875 -0.171875 -0.1875 -0.453125q0 -0.265625 0.1875 -0.421875q0.1875 -0.171875 0.609375 -0.171875l1.453125 0l0 -2.921875l-0.96875 0q-0.4375 0 -0.625 -0.15625q-0.1875 -0.171875 -0.1875 -0.4375q0 -0.265625 0.1875 -0.4375q0.1875 -0.171875 0.625 -0.171875l2.171875 0zm9.716797 2.765625q0 0.6875 -0.390625 1.34375q-0.375 0.640625 -1.140625 1.03125q-0.75 0.375 -1.578125 0.375q-0.8125 0 -1.5625 -0.375q-0.75 -0.375 -1.15625 -1.015625q-0.390625 -0.65625 -0.390625 -1.375q0 -0.71875 0.390625 -1.40625q0.40625 -0.703125 1.15625 -1.09375q0.75 -0.40625 1.5625 -0.40625q0.828125 0 1.578125 0.40625q0.765625 0.40625 1.140625 1.109375q0.390625 0.6875 0.390625 1.40625zm-1.203125 0q0 -0.578125 -0.40625 -1.0625q-0.578125 -0.65625 -1.5 -0.65625q-0.8125 0 -1.359375 0.53125q-0.546875 0.515625 -0.546875 1.203125q0 0.5625 0.546875 1.046875q0.5625 0.484375 1.359375 0.484375q0.8125 0 1.359375 -0.484375q0.546875 -0.484375 0.546875 -1.0625zm4.076172 -2.765625l0 0.40625q0.328125 -0.28125 0.71875 -0.421875q0.390625 -0.140625 0.859375 -0.140625q1.0625 0 1.6875 0.671875q0.484375 0.515625 0.484375 1.375l0 2.234375q0.390625 0 0.5625 0.171875q0.1875 0.15625 0.1875 0.4375q0 0.265625 -0.1875 0.4375q-0.1875 0.15625 -0.609375 0.15625l-1.09375 0q-0.421875 0 -0.609375 -0.15625q-0.1875 -0.171875 -0.1875 -0.453125q0 -0.265625 0.171875 -0.421875q0.1875 -0.171875 0.578125 -0.171875l0 -2.265625q0 -0.390625 -0.21875 -0.578125q-0.28125 -0.234375 -0.828125 -0.234375q-0.40625 0 -0.734375 0.171875q-0.3125 0.15625 -0.78125 0.671875l0 2.234375q0.453125 0 0.59375 0.09375q0.28125 0.171875 0.28125 0.515625q0 0.265625 -0.1875 0.4375q-0.171875 0.15625 -0.609375 0.15625l-1.359375 0q-0.4375 0 -0.625 -0.15625q-0.1875 -0.171875 -0.1875 -0.453125q0 -0.328125 0.28125 -0.5q0.140625 -0.09375 0.609375 -0.09375l0 -2.921875q-0.390625 0 -0.578125 -0.15625q-0.171875 -0.171875 -0.171875 -0.4375q0 -0.265625 0.1875 -0.4375q0.1875 -0.171875 0.625 -0.171875l1.140625 0zm9.498047 5.328125l0 -0.28125q-0.453125 0.234375 -1.0 0.359375q-0.546875 0.125 -0.984375 0.125q-0.96875 0 -1.578125 -0.515625q-0.609375 -0.515625 -0.609375 -1.140625q0 -0.75 0.765625 -1.390625q0.78125 -0.65625 2.140625 -0.65625q0.546875 0 1.265625 0.125l0 -0.296875q0 -0.265625 -0.234375 -0.4375q-0.234375 -0.171875 -0.890625 -0.171875q-0.53125 0 -1.375 0.21875q-0.3125 0.078125 -0.5 0.078125q-0.234375 0 -0.40625 -0.171875q-0.15625 -0.1875 -0.15625 -0.453125q0 -0.15625 0.046875 -0.265625q0.0625 -0.109375 0.171875 -0.171875q0.109375 -0.0625 0.4375 -0.15625q0.453125 -0.125 0.90625 -0.203125q0.46875 -0.078125 0.84375 -0.078125q1.109375 0 1.734375 0.484375q0.625 0.484375 0.625 1.328125l0 2.46875l0.203125 0q0.421875 0 0.609375 0.171875q0.1875 0.15625 0.1875 0.4375q0 0.265625 -0.1875 0.4375q-0.1875 0.15625 -0.609375 0.15625l-1.40625 0zm0 -2.15625q-0.71875 -0.140625 -1.328125 -0.140625q-0.734375 0 -1.265625 0.359375q-0.328125 0.234375 -0.328125 0.46875q0 0.171875 0.15625 0.265625q0.296875 0.203125 0.796875 0.203125q0.4375 0 0.984375 -0.171875q0.546875 -0.171875 0.984375 -0.46875l0 -0.515625zm6.716797 -5.4375l0 6.390625l1.4375 0q0.4375 0 0.625 0.171875q0.1875 0.15625 0.1875 0.4375q0 0.265625 -0.1875 0.4375q-0.1875 0.15625 -0.625 0.15625l-4.078125 0q-0.4375 0 -0.625 -0.15625q-0.1875 -0.171875 -0.1875 -0.453125q0 -0.265625 0.1875 -0.421875q0.1875 -0.171875 0.625 -0.171875l1.4375 0l0 -5.203125l-0.96875 0q-0.421875 0 -0.609375 -0.15625q-0.1875 -0.171875 -0.1875 -0.4375q0 -0.265625 0.171875 -0.421875q0.1875 -0.171875 0.625 -0.171875l2.171875 0zm4.544922 0.34375l1.546875 0l-0.375 2.875q-0.03125 0.21875 -0.140625 0.3125q-0.09375 0.078125 -0.234375 0.078125q-0.15625 0 -0.25 -0.078125q-0.09375 -0.09375 -0.125 -0.3125l-0.421875 -2.875zm2.5 0l1.546875 0l-0.375 2.875q-0.03125 0.21875 -0.125 0.3125q-0.09375 0.078125 -0.25 0.078125q-0.15625 0 -0.25 -0.078125q-0.09375 -0.09375 -0.125 -0.3125l-0.421875 -2.875zm6.482422 4.34375q-0.203125 -0.25 -0.28125 -0.46875q-0.078125 -0.234375 -0.078125 -0.625l0 -1.90625q0 -0.234375 -0.09375 -0.34375q-0.09375 -0.109375 -0.34375 -0.125q-0.234375 -0.03125 -0.40625 -0.1875q-0.15625 -0.171875 -0.15625 -0.421875q0 -0.25 0.171875 -0.421875q0.1875 -0.1875 0.46875 -0.1875q0.390625 0 0.75 0.21875q0.375 0.203125 0.640625 0.671875q0.171875 0.296875 0.171875 0.703125l0 2.0q0 0.25 0.078125 0.359375q0.078125 0.09375 0.34375 0.125q0.28125 0.015625 0.421875 0.1875q0.140625 0.15625 0.140625 0.421875q0 0.25 -0.140625 0.40625q-0.140625 0.15625 -0.421875 0.1875q-0.265625 0.03125 -0.328125 0.109375q-0.09375 0.125 -0.09375 0.375l0 2.109375q0 0.65625 -0.46875 1.125q-0.46875 0.46875 -1.09375 0.46875q-0.28125 0 -0.46875 -0.171875q-0.171875 -0.171875 -0.171875 -0.4375q0 -0.234375 0.15625 -0.40625q0.171875 -0.171875 0.421875 -0.203125q0.25 -0.015625 0.3125 -0.09375q0.109375 -0.125 0.109375 -0.375l0 -1.90625q0 -0.5 0.0625 -0.71875q0.078125 -0.234375 0.296875 -0.46875z" fill-rule="nonzero"></path><path fill="#ffffff" d="m90.99475 85.20473l291.90552 0l0 48.0l-291.90552 0z" fill-rule="nonzero"></path><path stroke="#0b5394" stroke-width="1.0" stroke-linejoin="round" stroke-linecap="butt" d="m90.99475 85.20473l291.90552 0l0 48.0l-291.90552 0z" fill-rule="nonzero"></path><path fill="#0b5394" d="m211.79465 111.124725l2.671875 0.84375q-0.609375 2.21875 -2.046875 3.3125q-1.421875 1.078125 -3.609375 1.078125q-2.703125 0 -4.453125 -1.84375q-1.734375 -1.859375 -1.734375 -5.078125q0 -3.390625 1.75 -5.265625q1.75 -1.875 4.609375 -1.875q2.5 0 4.046875 1.46875q0.9375 0.875 1.390625 2.5l-2.71875 0.65625q-0.234375 -1.0625 -1.0 -1.671875q-0.765625 -0.609375 -1.859375 -0.609375q-1.515625 0 -2.453125 1.09375q-0.9375 1.078125 -0.9375 3.5q0 2.578125 0.921875 3.6875q0.921875 1.09375 2.40625 1.09375q1.109375 0 1.890625 -0.6875q0.78125 -0.703125 1.125 -2.203125zm4.160446 -0.0625q0 -1.296875 0.640625 -2.515625q0.640625 -1.21875 1.8125 -1.859375q1.1718903 -0.640625 2.6093903 -0.640625q2.25 0 3.671875 1.453125q1.421875 1.453125 1.421875 3.671875q0 2.234375 -1.4375 3.703125q-1.4375 1.46875 -3.625 1.46875q-1.359375 0 -2.5937653 -0.609375q-1.21875 -0.609375 -1.859375 -1.796875q-0.640625 -1.1875 -0.640625 -2.875zm2.671875 0.140625q0 1.46875 0.68751526 2.25q0.703125 0.765625 1.71875 0.765625q1.015625 0 1.703125 -0.765625q0.703125 -0.78125 0.703125 -2.265625q0 -1.453125 -0.703125 -2.234375q-0.6875 -0.78125 -1.703125 -0.78125q-1.015625 0 -1.71875 0.78125q-0.68751526 0.78125 -0.68751526 2.25zm18.286606 4.921875l-2.609375 0l0 -5.03125q0 -1.59375 -0.171875 -2.0625q-0.15625 -0.46875 -0.53125 -0.71875q-0.375 -0.265625 -0.90625 -0.265625q-0.6875 0 -1.234375 0.375q-0.53125 0.359375 -0.734375 0.984375q-0.1875 0.609375 -0.1875 2.25l0 4.46875l-2.609375 0l0 -9.859375l2.421875 0l0 1.453125q1.296875 -1.671875 3.25 -1.671875q0.859375 0 1.578125 0.3125q0.71875 0.3125 1.078125 0.796875q0.359375 0.484375 0.5 1.09375q0.15625 0.609375 0.15625 1.75l0 6.125zm6.942871 -9.859375l0 2.078125l-1.78125 0l0 3.984375q0 1.203125 0.046875 1.40625q0.0625 0.1875 0.234375 0.328125q0.1875 0.125 0.453125 0.125q0.359375 0 1.046875 -0.25l0.21875 2.015625q-0.90625 0.390625 -2.0625 0.390625q-0.703125 0 -1.265625 -0.234375q-0.5625 -0.234375 -0.828125 -0.609375q-0.265625 -0.375 -0.375 -1.015625q-0.078125 -0.453125 -0.078125 -1.84375l0 -4.296875l-1.203125 0l0 -2.078125l1.203125 0l0 -1.953125l2.609375 -1.515625l0 3.46875l1.78125 0zm7.400177 6.71875l2.609375 0.4375q-0.5 1.4375 -1.59375 2.1875q-1.078125 0.734375 -2.703125 0.734375q-2.5625 0 -3.796875 -1.671875q-0.96875 -1.34375 -0.96875 -3.40625q0 -2.4375 1.265625 -3.828125q1.28125 -1.390625 3.25 -1.390625q2.1875 0 3.453125 1.453125q1.28125 1.453125 1.234375 4.453125l-6.53125 0q0.015625 1.15625 0.625 1.8125q0.609375 0.640625 1.5 0.640625q0.609375 0 1.03125 -0.328125q0.421875 -0.34375 0.625 -1.09375zm0.15625 -2.625q-0.03125 -1.140625 -0.59375 -1.71875q-0.546875 -0.59375 -1.34375 -0.59375q-0.859375 0 -1.40625 0.625q-0.5625 0.609375 -0.546875 1.6875l3.890625 0zm13.485077 5.765625l-2.609375 0l0 -5.03125q0 -1.59375 -0.171875 -2.0625q-0.15625 -0.46875 -0.53125 -0.71875q-0.375 -0.265625 -0.90625 -0.265625q-0.6875 0 -1.234375 0.375q-0.53125 0.359375 -0.734375 0.984375q-0.1875 0.609375 -0.1875 2.25l0 4.46875l-2.609375 0l0 -9.859375l2.421875 0l0 1.453125q1.296875 -1.671875 3.25 -1.671875q0.859375 0 1.578125 0.3125q0.71875 0.3125 1.078125 0.796875q0.359375 0.484375 0.5 1.09375q0.15625 0.609375 0.15625 1.75l0 6.125zm6.942871 -9.859375l0 2.078125l-1.78125 0l0 3.984375q0 1.203125 0.046875 1.40625q0.0625 0.1875 0.234375 0.328125q0.1875 0.125 0.453125 0.125q0.359375 0 1.046875 -0.25l0.21875 2.015625q-0.90625 0.390625 -2.0625 0.390625q-0.703125 0 -1.265625 -0.234375q-0.5625 -0.234375 -0.828125 -0.609375q-0.265625 -0.375 -0.375 -1.015625q-0.078125 -0.453125 -0.078125 -1.84375l0 -4.296875l-1.203125 0l0 -2.078125l1.203125 0l0 -1.953125l2.609375 -1.515625l0 3.46875l1.78125 0z" fill-rule="nonzero"></path><path fill="#000000" fill-opacity="0.0" d="m33.230972 109.678024l57.76378 0" fill-rule="nonzero"></path><path stroke="#0b5394" stroke-width="1.0" stroke-miterlimit="8.0" d="m33.230972 109.678024l57.76378 0" fill-rule="nonzero"></path><path fill="#000000" fill-opacity="0.0" d="m38.002625 77.7874l88.47244 0l0 48.0l-88.47244 0z" fill-rule="nonzero"></path><path fill="#000000" d="m54.08075 104.7074l-1.671875 0l0 -10.640625q-0.59375 0.578125 -1.578125 1.15625q-0.984375 0.5625 -1.765625 0.859375l0 -1.625q1.40625 -0.65625 2.453125 -1.59375q1.046875 -0.9375 1.484375 -1.8125l1.078125 0l0 13.65625zm4.985092 0l0 -1.90625l1.90625 0l0 1.90625q0 1.046875 -0.375 1.6875q-0.375 0.65625 -1.171875 1.0l-0.46875 -0.71875q0.53125 -0.21875 0.78125 -0.671875q0.25 -0.453125 0.28125 -1.296875l-0.953125 0zm4.089554 -11.109375l0.421875 -1.3125q1.484375 0.515625 2.140625 0.90625q-0.171875 -1.6875 -0.171875 -2.3125l1.34375 0q-0.03125 0.90625 -0.21875 2.296875q0.953125 -0.484375 2.1875 -0.890625l0.421875 1.3125q-1.171875 0.390625 -2.296875 0.53125q0.5625 0.484375 1.59375 1.75l-1.109375 0.78125q-0.546875 -0.734375 -1.28125 -1.984375q-0.6875 1.296875 -1.203125 1.984375l-1.09375 -0.78125q1.078125 -1.328125 1.53125 -1.75q-1.1875 -0.234375 -2.265625 -0.53125z" fill-rule="nonzero"></path></g></svg>

